<?xml version="1.0" encoding="utf-8"?>
<!-- Generator: Adobe Illustrator 27.5.0, SVG Export Plug-In . SVG Version: 6.00 Build 0)  -->
<svg version="1.1" xmlns="http://www.w3.org/2000/svg" xmlns:xlink="http://www.w3.org/1999/xlink" x="0px" y="0px"
	 viewBox="0 0 750 500" style="enable-background:new 0 0 750 500;" xml:space="preserve">
<g id="BACKGROUND">
</g>
<g id="OBJECTS">
	<g>
		<g>
			<polygon style="fill:#EFEFEF;" points="510.641,130.737 471.294,130.737 471.294,162.432 448.313,162.432 448.313,195.529 
				437.15,195.529 437.15,157.617 358.077,122.366 358.077,230.614 343.639,230.614 343.639,182.857 312.179,182.857 
				312.179,137.949 252.108,137.949 252.108,187.854 166.546,187.854 166.546,204.097 112.309,204.097 112.309,284.59 
				411.102,348.758 601.788,224.771 			"/>
			<path style="fill:#FFFFFF;" d="M136.445,219.358v10.825H125.62v-10.825H136.445z M125.62,264.095h10.825v-10.825H125.62V264.095z
				 M373.442,173.257h10.825v-10.825h-10.825V173.257z M394.414,162.432v10.825h10.825v-10.825H394.414z M373.442,200.942h10.825
				v-10.825h-10.825V200.942z M394.414,200.942h10.825v-10.825h-10.825V200.942z M296.003,214.294h10.825v-10.825h-10.825V214.294z
				 M319.444,203.469v10.825h10.825v-10.825H319.444z M296.003,246.388h10.825v-10.825h-10.825V246.388z M272.342,214.294h10.825
				v-10.825h-10.825V214.294z M272.342,246.388h10.825v-10.825h-10.825V246.388z M319.444,246.388h10.825v-10.825h-10.825V246.388z"
				/>
		</g>
		<path style="fill:#322751;" d="M659.802,411.859H520.554c-3.669,0-7.09-1.063-9.972-2.898c-5.182-3.299-8.619-9.095-8.619-15.693
			V111.289c0-6.395,3.229-12.036,8.145-15.381c2.977-2.026,6.573-3.21,10.445-3.21h139.248c6.395,0,12.036,3.229,15.382,8.146
			c2.025,2.977,3.209,6.573,3.209,10.445v281.979c0,5.577-2.456,10.58-6.345,13.988
			C668.778,410.121,664.493,411.859,659.802,411.859z"/>
		<rect x="516.005" y="109.936" style="fill:#6CB1BC;" width="148.347" height="279.008"/>
		<polygon style="opacity:0.2;fill:#FFFFFF;" points="645.347,136.501 646.631,142.276 658.501,139.389 657.154,133.711 		"/>
		<polygon style="opacity:0.2;fill:#FFFFFF;" points="544.936,147.433 543.61,153.874 525.868,150.896 527.317,144.213 		"/>
		<path style="fill:#238CA5;" d="M664.352,190.577l-25.579-17.208l4.072-10.501l7.109,6.292l1.988-2.247l-7.941-7.027l2.148-5.538
			l-3.674-20.358c3.362-0.802,12.371-2.96,21.331-5.178c0.187-0.046,0.36-0.089,0.544-0.135v-3.091
			c-7.473,1.857-15.669,3.843-22.409,5.448l-3.424-18.975h-3.049l5.265,29.174l-86.957-14.679l2.155-14.495H552.9l-2.073,13.942
			c-15.077-3.079-26.359-5.33-34.822-6.974v3.071c11.016,2.148,23.82,4.719,34.381,6.874l-1.832,12.321l-13.731-2.692l-0.578,2.944
			l13.867,2.719l-1.998,13.438l-30.109-4.883v6.078l27.761,4.502l-27.761,43.104v5.539l30.992-48.119l61.495,9.972l-29.568,56.523
			l2.658,1.391l30.031-57.408l22.149,3.592l-14.692,37.881l2.797,1.085l14.681-37.854l9.868,6.639l-5.588,14.345l2.795,1.089
			l5.344-13.718l15.384,10.35V190.577z M635.98,172.273l-86.904-14.093l4.261-28.661l87.964,14.85l1.747,9.68L635.98,172.273z"/>
		<rect x="516.005" y="109.936" style="fill:#238CA5;" width="148.347" height="12.431"/>
		<g>
			<g>
				<rect x="71.607" y="369.099" style="fill:#85993C;" width="592.745" height="19.845"/>
				<rect x="71.607" y="369.099" style="fill:#AFC64F;" width="592.745" height="5.256"/>
			</g>
			<g>
				<rect x="71.607" y="284.59" style="fill:#85993C;" width="592.745" height="19.845"/>
				<rect x="71.607" y="284.59" style="fill:#AFC64F;" width="592.745" height="5.256"/>
			</g>
			<rect x="71.607" y="304.435" style="fill:#494175;" width="592.745" height="64.665"/>
			<rect x="71.607" y="304.435" style="fill:#353060;" width="592.745" height="3.69"/>
			<path style="opacity:0.1;fill:#FFFFFF;" d="M229.579,341.089h-59.907v-8.645h59.907V341.089z M330.12,332.444h-59.907v8.645
				h59.907V332.444z M430.66,332.444h-59.907v8.645h59.907V332.444z M531.201,332.444h-59.907v8.645h59.907V332.444z
				 M631.742,332.444h-59.907v8.645h59.907V332.444z"/>
		</g>
		<g>
			<defs>
				<rect id="SVGID_1_" x="300.435" y="162.432" width="363.917" height="174.335"/>
			</defs>
			<clipPath id="SVGID_00000017477146726819058090000002504660755673921181_">
				<use xlink:href="#SVGID_1_"  style="overflow:visible;"/>
			</clipPath>
			<g style="clip-path:url(#SVGID_00000017477146726819058090000002504660755673921181_);">
				<g>
					<path style="fill:#FFFC9C;" d="M561.556,179.972c-0.577-1.788-2.242-3-4.121-3h-8.351H530.15h-8.351
						c-1.879,0-3.544,1.212-4.121,3l-4.633,14.346c-0.903,2.797,1.182,5.662,4.121,5.662h12.984h18.933h12.984
						c2.939,0,5.025-2.865,4.121-5.662L561.556,179.972z"/>
					<path style="fill:#EAD32D;" d="M599.489,186.283H531.43c-14.602,0-29.041,2.402-42.755,7.052
						c-8.478,2.875-16.679,6.609-24.47,11.167l-51.022,29.849l-56.89,14c-7.134,1.756-13.778,4.857-19.616,9.063
						c-6.696,4.824-12.333,11.1-16.431,18.463c-4.155,7.463-7.779,14.042-7.779,14.278c0,0.553,391.733,0,391.733,0l-21.686-50.746
						c-1.697-3.97-4.179-7.486-7.244-10.371c-3.705-3.488-8.262-6.054-13.309-7.387l-14.67-3.875l-19.962-19.962
						c-4.1-4.1-9.012-7.203-14.358-9.151C608.69,187.103,604.132,186.283,599.489,186.283z"/>
					<path style="fill:#EAD32D;" d="M599.489,186.283H531.43c-14.602,0-29.041,2.402-42.755,7.052
						c-8.478,2.875-16.679,6.609-24.47,11.167l-51.022,29.849l-56.89,14c-7.134,1.756-13.778,4.857-19.616,9.063
						c-6.696,4.824-12.333,11.1-16.431,18.463c-4.155,7.463-7.779,14.042-7.779,14.278c0,0.553,391.733,0,391.733,0l-21.686-50.746
						c-1.697-3.97-4.179-7.486-7.244-10.371c-3.705-3.488-8.262-6.054-13.309-7.387l-14.67-3.875l-19.962-19.962
						c-4.1-4.1-9.012-7.203-14.358-9.151C608.69,187.103,604.132,186.283,599.489,186.283z"/>
					<path style="fill:#E8BB2E;" d="M336.677,257.415c-6.697,4.824-12.333,11.1-16.431,18.463
						c-4.155,7.463-7.779,14.042-7.779,14.278c0,0.553,391.733,0,391.733,0l-15.245-35.673h-347.77
						C339.635,255.389,338.131,256.368,336.677,257.415z"/>
					<path style="fill:#322751;" d="M474.511,259.582v10.373h-10.373v-10.373H474.511z M474.511,280.329h10.374v-10.374h-10.374
						V280.329z M484.885,259.582v10.373h10.373v-10.373H484.885z M495.258,280.329h10.374v-10.374h-10.374V280.329z
						 M505.632,259.582v10.373h10.373v-10.373H505.632z M516.005,280.329h10.373v-10.374h-10.373V280.329z M526.379,259.582v10.373
						h10.374v-10.373H526.379z M536.752,280.329h10.373v-10.374h-10.373V280.329z M547.126,259.582v10.373h10.374v-10.373H547.126z
						 M557.499,269.955v10.374h10.373v-10.374H557.499z"/>
					<path style="fill:#322751;" d="M523.305,231.064c0,2.119-1.718,3.837-3.837,3.837h-78.427c-3.914,0-5.316-5.173-1.938-7.149
						l28.835-16.869c7.312-4.278,15.088-7.826,23.11-10.546c9.127-3.095,18.525-5.119,28.064-6.055
						c2.248-0.221,4.192,1.565,4.192,3.824V231.064z M572.642,193.676h-36.727c-2.119,0-3.837,1.718-3.837,3.837v33.552
						c0,2.119,1.718,3.837,3.837,3.837h36.727c2.119,0,3.837-1.718,3.837-3.837v-33.552
						C576.479,195.394,574.761,193.676,572.642,193.676z M622.102,203.042c-3.276-3.277-7.309-5.847-11.662-7.433
						c-3.519-1.283-7.204-1.933-10.951-1.933h-10.4c-2.119,0-3.837,1.718-3.837,3.837v33.552c0,2.119,1.718,3.837,3.837,3.837h9.095
						c0.322,0,0.643-0.041,0.955-0.121l37.006-9.507c2.878-0.739,3.86-4.329,1.758-6.43L622.102,203.042z"/>
					<path style="fill:#BC8C06;" d="M700.191,311.045H318.77c-4.97,0-8.998-4.029-8.998-8.998v-8.258
						c0-4.97,4.029-8.998,8.998-8.998h381.421c4.97,0,8.998,4.029,8.998,8.998v8.258
						C709.189,307.016,705.16,311.045,700.191,311.045z"/>
					
						<ellipse transform="matrix(0.9098 -0.4151 0.4151 0.9098 -47.7228 306.8037)" style="fill:#D13939;" cx="681.941" cy="263.188" rx="5.254" ry="14.201"/>
					
						<ellipse transform="matrix(0.4151 -0.9098 0.9098 0.4151 -45.1172 467.7872)" style="fill:#BC8C06;" cx="341.24" cy="268.981" rx="14.201" ry="5.254"/>
					<path style="fill:#FFFC9C;" d="M341.164,266.8c-2.736,5.997-3.516,11.716-2.131,14.107c2.329-1.744,4.955-5.291,6.987-9.745
						c2.736-5.997,3.516-11.716,2.131-14.107C345.822,258.799,343.196,262.346,341.164,266.8z"/>
					<path style="fill:#3D3266;" d="M492.748,199.787c5.679-1.837,11.458-3.261,17.308-4.27l-38.414,39.384h-13.144L492.748,199.787
						z M523.305,231.064V227.1l-7.609,7.801h3.772C521.587,234.902,523.305,233.184,523.305,231.064z M576.479,197.513
						c0-1.491-0.859-2.769-2.102-3.404l-39.601,40.602c0.362,0.113,0.74,0.191,1.139,0.191h4.242l36.322-37.24V197.513z
						 M521.814,195.067c-0.739-0.575-1.688-0.885-2.701-0.785c-0.788,0.077-1.574,0.174-2.36,0.266l-39.36,40.354h5.568
						L521.814,195.067z M555.906,193.676l-23.828,24.43v12.959c0,0.161,0.028,0.313,0.047,0.469l36.925-37.858H555.906z
						 M625.304,206.245l-2.818-2.818l-30.7,31.475h5.568L625.304,206.245z M576.461,231.243l-3.541,3.63
						C574.847,234.733,576.37,233.183,576.461,231.243z M611,195.831l-25.749,26.399v8.834c0,1.255,0.612,2.359,1.543,3.059
						l32.637-33.461C616.888,198.637,614.026,197.001,611,195.831z"/>
					<rect x="497.109" y="240.75" style="fill:#E8BB2E;" width="26.196" height="4.388"/>
					<rect x="550.265" y="240.75" style="fill:#E8BB2E;" width="26.196" height="4.388"/>
				</g>
				<g>
					<g>
						<circle style="fill:#322751;" cx="399.197" cy="302.684" r="34.083"/>
						<circle style="fill:#EAD32D;" cx="399.197" cy="302.684" r="21.776"/>
						<circle style="fill:#FFFC9C;" cx="399.197" cy="302.684" r="19.029"/>
					</g>
					<g>
						<circle style="fill:#322751;" cx="619.432" cy="302.684" r="34.083"/>
						<circle style="fill:#EAD32D;" cx="619.432" cy="302.684" r="21.776"/>
						<circle style="fill:#FFFC9C;" cx="619.432" cy="302.684" r="19.029"/>
					</g>
				</g>
			</g>
		</g>
		<g>
			<ellipse style="fill:#F2F2F2;" cx="210.303" cy="403.7" rx="59.511" ry="8.159"/>
			<g>
				<path style="fill:#322751;" d="M271.715,128.407l2.089-0.282c0.708-0.096,1.319-0.45,1.748-0.956
					c0.479-0.564,0.733-1.317,0.645-2.109l-2.363-21.266c-0.061-0.546-0.275-1.037-0.596-1.435c-0.582-0.723-1.511-1.139-2.501-1.02
					l-11.541,1.384c-0.652,0.078-1.222,0.375-1.648,0.806c-0.61,0.618-0.924,1.512-0.762,2.438l3.94,22.441H271.715z"/>
				<polygon style="fill:#EAD32D;" points="259.02,105.422 262.521,126.984 273.904,125.719 271.245,103.889 				"/>
				<path style="fill:#FFA799;" d="M262.021,135.904l-1.953-3.527c0,0-4.769-6.168-3.605-9.27c1.163-3.102,7.885-10.212,8.919-8.014
					s-3.361,7.109-3.232,9.565c0.129,2.456,9.565,3.749,9.565,3.749l-0.489,4.299L262.021,135.904z"/>
				<path style="fill:#322751;" d="M221.519,204.097l13.541,16.719c0,0,9.451,79.325,1.586,167.748l-12.832,0.259
					c0,0,3.47-59.015-11.708-135.574l-2.71-0.113c0,0-9.628,93.714-22.68,137.599h-12.621c0,0,9.777-82.246,11.742-166.264
					L221.519,204.097z"/>
				<g>
					<path style="fill:#494175;" d="M237.451,378.732c-4.296,0.552-8.799,1.009-13.359,1.387c-0.099,5.633-0.278,8.704-0.278,8.704
						l12.832-0.259C236.939,385.272,237.205,381.995,237.451,378.732z"/>
					<path style="fill:#494175;" d="M175.085,381.899c-0.616,5.682-0.99,8.836-0.99,8.836h12.621
						c0.832-2.797,1.65-5.798,2.452-8.963C183.519,381.878,178.657,381.903,175.085,381.899z"/>
				</g>
				<path style="fill:#238CA5;" d="M194.425,151.397c0,0-17.109,3.917-20.297,7.685c-3.188,3.768-20.877,40.052-22.728,53.935
					c-1.883,14.125-2.406,45.665-2.406,45.665l11.171-3.379c0,0,4.13-34.612,6.159-41.592c2.029-6.981,13.89-28.253,13.89-28.253
					s5.623,30.898,5.623,39.014c0,0,37.252,1.852,49.223-3.655c0,0-4.503-28.935-6.734-45.747c0,0,28.838,12.49,39.506,5.834
					c8.032-5.011,3.394-48.198,3.394-48.198l-11.159-0.328c0,0-1.967,33.819-3.416,35.268c-1.449,1.449-28.612-14.071-33.25-14.361
					c-4.638-0.29-15.036-1.707-15.036-1.707L194.425,151.397z"/>
				<g>
					<circle style="fill:#6CB1BC;" cx="210.048" cy="171.512" r="1.745"/>
					<circle style="fill:#6CB1BC;" cx="214.725" cy="209.931" r="1.745"/>
					<circle style="fill:#6CB1BC;" cx="212.98" cy="189.599" r="1.745"/>
				</g>
				<g>
					<path style="fill:#6CB1BC;" d="M234.304,215.919c-13.646,5.976-36.437,5.101-48.758,4.056c0.182,1.831,0.291,3.384,0.291,4.497
						c0,0,37.252,1.852,49.223-3.655C235.06,220.816,234.771,218.959,234.304,215.919z"/>
					<path style="fill:#6CB1BC;" d="M271.226,132.705l-11.159-0.328c0,0-1.967,33.819-3.416,35.268
						c-1.294,1.294-23.084-10.936-31.035-13.776c4.457,7.957,2.71,21.2,2.71,21.2s28.838,12.49,39.506,5.834
						C275.864,175.892,271.226,132.705,271.226,132.705z"/>
					<path style="fill:#6CB1BC;" d="M148.994,258.682l11.171-3.379c0,0,4.13-34.612,6.159-41.592
						c1.793-6.169,11.259-23.489,13.438-27.436c0,0,0,0,0,0c1-14.247-5.634-27.193-5.634-27.193
						c-3.188,3.768-20.877,40.052-22.728,53.935C149.516,227.141,148.994,258.682,148.994,258.682z"/>
				</g>
				<path style="fill:#322751;" d="M195.735,150.103l-4.415,2.063c0,0,0.327,7.667,6.394,15.657c0,0,3.58-7.479,10.298-7.661
					s11.009,5.441,11.009,5.441s0.754-7.216-6.799-13.522l-4.598-2.216l-5.767-0.834L195.735,150.103z"/>
				<path style="fill:#322751;" d="M222.758,129.293l1.56-12.097c0,0,4.872-4.653,1.947-11.033s-10.951-14.091-29.03-8.109
					c-18.352,6.072-20.073,21.136-15.021,32.17c5.051,11.033,8.508,12.526,7.71,18.109c0,0,9.473,2.762,15.172-5.746
					C210.794,134.079,222.758,129.293,222.758,129.293z"/>
				<path style="fill:#FFA799;" d="M224.318,117.197c0,0,3.891,30.574-16.714,28.979c0,0-0.057,4.121,1.833,6.248
					c0,0,1.623,3.589-1.833,7.045c0,0-8.014-3.65-11.869-9.366c0,0,1.391-3.226,0.992-6.682c0,0-4.677-3.36-5.342-7.348
					c0,0-7.273-2.132-5.716-7.71c1.323-4.742,4.653-1.595,4.653-1.595s11.074-12.338,19.743-13.401c0,0-0.058,4.894-2.595,9.546
					C207.471,122.913,219.665,121.982,224.318,117.197z"/>
				<path style="fill:#FFA799;" d="M160.165,255.303c0,0,2.143,6.191,1.489,9.04c-0.654,2.848-0.647,5.528-1.808,5.12
					c-1.16-0.408-1.176-3.477-1.653-4.798c0,0-2.947,3.968-3.636,7.421c-0.689,3.453-1.689,6.627-2.484,6.549
					c-0.794-0.078-1.09-1.872-1.09-1.872s-1.857-0.907-2.426-2.821c-0.57-1.913-3.383-5.718-3.481-7.589
					c-0.098-1.871,1.073-6.499,4.018-12.388C149.094,253.966,155.217,252.324,160.165,255.303z"/>
				<path style="fill:#238CA5;" d="M186.715,390.735c0,0-0.802,0.61,4.1,2.789c4.902,2.179,7.557,4.357,8.374,11.165h-28.253
					l3.158-13.954H186.715z"/>
				<path style="fill:#238CA5;" d="M236.646,388.564c0,0-0.802,0.61,4.1,2.789c4.902,2.179,15.071,4.357,15.888,11.165h-33.173
					l0.564-13.954H236.646z"/>
			</g>
		</g>
		<g>
			<path style="fill:#E85A56;" d="M590.178,179.986l-24.625-24.625c-8.5-8.5-11.687-20.3-9.562-31.276
				c1.275-6.585,4.462-12.873,9.562-17.973l0,0c6.8-6.8,15.712-10.2,24.625-10.2c8.912,0,17.825,3.4,24.625,10.2l0,0
				c5.748,5.748,9.066,13.005,9.956,20.495c1.215,10.233-2.103,20.902-9.956,28.754L590.178,179.986z"/>
			<circle style="fill:#FFFFFF;" cx="590.178" cy="130.737" r="21.34"/>
		</g>
		<path style="fill:#E85A56;" d="M313.504,117.451c-1.884,3.354-6.129,4.546-9.483,2.662c-3.354-1.884-4.546-6.129-2.662-9.483
			c1.884-3.354,6.129-4.546,9.483-2.662C314.195,109.852,315.387,114.097,313.504,117.451z M320.633,110.335
			c-2.043-7.279-9.629-11.538-16.907-9.495l0.812,2.893c5.683-1.595,11.605,1.73,13.203,7.415L320.633,110.335z M323.835,109.435
			l2.893-0.812c-2.987-10.639-14.074-16.868-24.714-13.88l0.812,2.893C311.874,95.098,321.295,100.391,323.835,109.435z
			 M332.355,107.044c-1.869-6.658-6.219-12.189-12.247-15.575c-6.029-3.386-13.016-4.221-19.673-2.351l0.812,2.893
			c5.885-1.652,12.06-0.914,17.389,2.079c5.329,2.993,9.174,7.883,10.826,13.768L332.355,107.044z"/>
	</g>
</g>
</svg>
